<?xml version="1.0" standalone="no"?>
<!DOCTYPE svg PUBLIC "-//W3C//DTD SVG 20010904//EN"
 "http://www.w3.org/TR/2001/REC-SVG-20010904/DTD/svg10.dtd">
<svg version="1.0" xmlns="http://www.w3.org/2000/svg"
 width="1536.000000pt" height="1024.000000pt" viewBox="0 0 1536.000000 1024.000000"
 preserveAspectRatio="xMidYMid meet">

<g transform="translate(0.000000,1024.000000) scale(0.100000,-0.100000)"
fill="#000000" stroke="none">
<path d="M6770 7259 c-461 -35 -959 -142 -1370 -294 -85 -32 -251 -100 -368
-152 -256 -113 -452 -179 -673 -228 -555 -122 -706 -158 -729 -174 -49 -34
-98 -232 -120 -479 -6 -75 -16 -128 -30 -160 -28 -62 -35 -134 -21 -217 34
-194 137 -319 296 -360 71 -18 689 -125 723 -125 19 0 21 3 12 19 -21 40 -40
166 -40 265 0 342 217 630 555 736 150 47 365 36 522 -27 166 -66 321 -209
398 -367 67 -136 80 -196 79 -361 -1 -134 -12 -202 -49 -287 -7 -17 87 -18
1894 -18 1046 0 1901 2 1901 3 0 2 -9 29 -19 60 -48 138 -52 337 -10 472 38
127 95 222 189 316 161 163 343 239 573 239 117 0 218 -24 332 -80 195 -96
327 -244 398 -447 26 -76 31 -106 35 -218 3 -107 1 -145 -16 -215 -11 -47 -24
-93 -27 -102 -7 -16 2 -18 91 -18 137 0 373 17 468 34 59 10 84 20 104 39 l26
26 -3 208 c-3 215 -15 325 -50 424 -60 176 -156 274 -366 375 -323 154 -826
256 -1590 324 -126 11 -260 27 -296 36 -45 10 -130 50 -270 125 -237 128 -591
304 -764 379 -314 137 -614 208 -1035 245 -175 16 -570 18 -750 4z m935 -188
c344 -54 560 -123 874 -280 217 -110 530 -311 602 -387 l22 -24 -219 0 c-538
1 -1958 34 -2961 69 -466 17 -525 20 -560 37 -101 50 -67 134 97 239 249 160
652 288 1065 339 249 31 312 34 625 31 263 -2 338 -6 455 -24z m3683 -1051
c179 -45 252 -68 279 -85 24 -16 65 -93 78 -147 5 -20 3 -29 -7 -33 -21 -8
-259 50 -306 74 -49 25 -182 171 -182 200 0 27 -1 27 138 -9z"/>
<path d="M5095 5956 c-384 -89 -588 -477 -444 -846 128 -328 516 -481 841
-332 226 104 357 311 358 564 0 115 -14 176 -61 276 -47 97 -141 204 -228 256
-131 80 -326 114 -466 82z m270 -267 c75 -28 148 -97 187 -177 29 -60 32 -76
32 -157 0 -114 -25 -183 -95 -260 -67 -73 -138 -107 -236 -113 -172 -11 -306
79 -365 246 -28 79 -22 195 14 274 82 178 275 256 463 187z"/>
<path d="M10361 5960 c-25 -5 -73 -19 -107 -30 -178 -59 -339 -237 -388 -427
-20 -76 -20 -228 -1 -309 52 -223 220 -392 445 -450 80 -20 236 -23 310 -5
178 43 334 166 408 322 53 111 67 174 66 294 -2 116 -31 220 -92 319 -72 120
-207 225 -342 267 -75 23 -232 33 -299 19z m174 -251 c161 -30 269 -143 296
-309 25 -156 -58 -318 -200 -387 -50 -25 -67 -28 -156 -28 -82 0 -109 4 -148
22 -70 33 -149 113 -183 186 -26 54 -29 73 -29 157 0 85 3 101 29 155 54 108
154 186 263 205 68 11 64 11 128 -1z"/>
<path d="M5490 4344 c-215 -39 -356 -164 -416 -369 -20 -70 -23 -222 -4 -300
41 -179 186 -322 370 -366 122 -29 288 -11 391 42 55 28 149 119 186 181 66
109 92 301 58 433 -59 231 -230 369 -470 380 -49 2 -101 2 -115 -1z m183 -244
c64 -24 118 -77 148 -145 32 -71 32 -199 0 -271 -26 -61 -81 -117 -135 -139
-52 -22 -170 -22 -221 0 -55 22 -109 78 -136 139 -33 74 -33 211 0 279 27 55
105 129 153 144 54 18 133 15 191 -7z"/>
<path d="M7540 4330 c-225 -61 -360 -249 -360 -502 0 -161 41 -275 135 -376
95 -103 220 -153 380 -153 156 0 283 49 374 146 220 232 175 656 -87 824 -118
75 -297 100 -442 61z m234 -222 c27 -8 60 -32 97 -68 47 -47 58 -65 74 -122
30 -113 8 -226 -61 -307 -66 -79 -207 -105 -309 -57 -58 27 -84 53 -117 116
-31 61 -38 205 -13 281 21 63 92 139 145 156 48 15 134 16 184 1z"/>
<path d="M6337 4115 c-14 -454 -39 -557 -144 -574 l-38 -6 -3 -118 -3 -117 69
0 c119 0 205 45 257 134 51 87 69 202 91 586 l5 95 115 0 114 0 0 -402 0 -403
120 0 120 0 0 515 0 515 -348 0 -349 0 -6 -225z"/>
<path d="M8340 3825 l0 -515 115 0 116 0 -3 310 c-2 170 0 306 3 302 4 -4 55
-90 113 -192 115 -197 136 -226 159 -217 13 5 172 275 224 379 10 21 20 38 23
38 3 0 4 -137 2 -305 l-3 -305 116 0 115 0 0 508 0 507 -125 -3 -124 -3 -82
-152 c-45 -84 -100 -185 -122 -225 l-39 -73 -131 231 -131 230 -113 0 -113 0
0 -515z"/>
<path d="M10777 4333 c-3 -5 -76 -199 -162 -433 -86 -234 -170 -460 -186 -502
l-28 -78 134 0 c78 0 135 4 135 9 0 6 14 48 31 95 l31 86 182 0 182 0 33 -95
33 -95 129 0 129 0 -27 73 c-15 39 -100 268 -188 507 l-161 435 -131 3 c-73 1
-134 -1 -136 -5z m197 -451 c31 -90 56 -168 56 -173 0 -11 -230 -12 -230 -1 0
8 114 341 116 339 1 -1 27 -76 58 -165z"/>
<path d="M11550 3828 l0 -513 120 0 120 0 0 153 0 152 118 0 c222 0 346 59
413 198 30 63 34 229 6 309 -39 111 -142 184 -289 203 -40 5 -166 10 -280 10
l-208 0 0 -512z m469 284 c74 -37 100 -122 63 -206 -30 -66 -76 -85 -199 -86
l-93 0 0 155 0 155 98 0 c73 0 106 -4 131 -18z"/>
<path d="M12570 4318 c-1 -66 -21 -386 -31 -468 -24 -216 -73 -320 -153 -320
l-36 0 0 -205 0 -205 110 0 110 0 0 95 0 95 310 0 310 0 0 -90 0 -90 105 0
105 0 0 200 0 200 -65 0 -65 0 0 405 0 405 -350 0 -350 0 0 -22z m460 -498 l0
-300 -171 0 c-159 0 -171 1 -164 18 60 141 73 208 100 515 l7 67 114 0 114 0
0 -300z"/>
<path d="M2376 3897 c-87 -237 -171 -467 -187 -509 l-28 -78 134 0 134 0 33
100 32 100 185 -2 184 -3 32 -95 32 -95 128 -3 c100 -2 126 0 123 10 -2 7 -87
237 -189 510 l-184 498 -135 0 -135 0 -159 -433z m358 -17 c31 -85 56 -160 56
-167 0 -10 -29 -13 -116 -13 -89 0 -115 3 -112 13 3 6 29 83 58 170 29 87 54
156 56 155 1 -2 28 -73 58 -158z"/>
<path d="M3290 3825 c0 -277 4 -506 8 -508 4 -1 135 0 292 3 259 6 290 8 338
27 113 45 171 118 179 226 3 34 0 82 -7 105 -14 53 -75 122 -129 147 l-40 18
44 29 c62 41 95 110 95 197 -1 121 -65 203 -188 241 -57 18 -93 20 -328 20
l-264 0 0 -505z m509 271 c25 -24 31 -38 31 -70 -1 -79 -33 -96 -179 -96
l-111 0 0 101 0 101 114 -4 c111 -3 116 -4 145 -32z m18 -392 c38 -28 44 -97
13 -137 -28 -35 -75 -47 -192 -47 l-98 0 0 106 0 106 124 -4 c108 -3 128 -6
153 -24z"/>
<path d="M4160 4220 l0 -110 145 0 145 0 0 -397 0 -398 120 0 120 0 0 398 0
397 140 0 140 0 0 110 0 110 -405 0 -405 0 0 -110z"/>
<path d="M9530 3823 l0 -508 247 2 c137 2 273 8 303 14 183 37 279 174 250
356 -19 116 -68 180 -175 230 -57 26 -69 28 -222 31 l-163 4 0 84 0 84 238 0
237 0 0 105 0 105 -357 0 -358 0 0 -507z m471 -73 c20 -6 44 -19 54 -30 25
-28 31 -99 10 -139 -24 -48 -66 -61 -190 -61 l-105 0 0 120 0 120 98 0 c53 0
113 -5 133 -10z"/>
</g>
</svg>
